<?xml version="1.0" encoding="utf-8"?>
<!-- Generator: Adobe Illustrator 19.0.0, SVG Export Plug-In . SVG Version: 6.00 Build 0)  -->
<svg version="1.1" id="Capa_1" xmlns="http://www.w3.org/2000/svg" xmlns:xlink="http://www.w3.org/1999/xlink" x="0px" y="0px"
	 viewBox="0 0 1920 620.5" style="enable-background:new 0 0 1920 620.5;" xml:space="preserve">
<style type="text/css">
	.st0{fill:#FFFFFF;}
	.st1{fill:#FCD700;}
	.st2{fill:#FAA21B;}
	.st3{fill:#999999;}
	.st4{clip-path:url(#XMLID_35_);fill:#00A8E1;}
	.st5{fill:#00A8E1;}
	.st6{fill:none;stroke:#FFFFFF;stroke-width:2;stroke-miterlimit:10;}
</style>
<rect id="XMLID_569_" x="1.1" y="-1242.4" class="st0" width="1894" height="3108.6"/>
<path id="XMLID_567_" class="st1" d="M129.4,728.2c15.6,0,28.2-12.6,28.2-28.2c0-15.6-12.6-28.2-28.2-28.2
	c-15.6,0-28.2,12.6-28.2,28.2C101.2,715.5,113.9,728.2,129.4,728.2"/>
<path id="XMLID_566_" class="st2" d="M180.1,464.1c11.7,0,21.2-9.5,21.2-21.2c0-11.7-9.5-21.2-21.2-21.2c-11.7,0-21.2,9.5-21.2,21.2
	C159,454.6,168.4,464.1,180.1,464.1"/>
<g id="XMLID_562_">
	<path id="XMLID_565_" class="st1" d="M1679.5,153.9c15.6,0,28.2-12.6,28.2-28.2c0-15.6-12.6-28.2-28.2-28.2
		c-15.6,0-28.2,12.6-28.2,28.2C1651.3,141.3,1663.9,153.9,1679.5,153.9"/>
	<path id="XMLID_564_" class="st2" d="M1487.7,117.7c11.7,0,21.2-9.5,21.2-21.2c0-11.7-9.5-21.2-21.2-21.2
		c-11.7,0-21.2,9.5-21.2,21.2C1466.6,108.2,1476.1,117.7,1487.7,117.7"/>
	<path id="XMLID_563_" class="st2" d="M1693.2,348.5c10.9,0,19.7-8.8,19.7-19.7c0-10.9-8.8-19.7-19.7-19.7
		c-10.9,0-19.7,8.8-19.7,19.7C1673.4,339.6,1682.3,348.5,1693.2,348.5"/>
</g>
<g id="XMLID_556_">
	<path id="XMLID_561_" class="st3" d="M840.7,751.5c6.1,0,11-4.9,11-11c0-6.1-4.9-11-11-11c-6.1,0-11,4.9-11,11
		C829.8,746.6,834.7,751.5,840.7,751.5"/>
	<g id="XMLID_557_">
		<path id="XMLID_560_" class="st3" d="M912.3,751.5c6.1,0,11-4.9,11-11c0-6.1-4.9-11-11-11c-6.1,0-11,4.9-11,11
			C901.3,746.6,906.2,751.5,912.3,751.5"/>
		<path id="XMLID_559_" class="st3" d="M983.9,751.5c6.1,0,11-4.9,11-11c0-6.1-4.9-11-11-11c-6.1,0-11,4.9-11,11
			C972.9,746.6,977.8,751.5,983.9,751.5"/>
		<path id="XMLID_558_" class="st3" d="M1055.4,751.5c6.1,0,11-4.9,11-11c0-6.1-4.9-11-11-11s-11,4.9-11,11
			C1044.5,746.6,1049.4,751.5,1055.4,751.5"/>
	</g>
</g>
<g id="XMLID_552_">
	<path id="XMLID_555_" class="st1" d="M1754.1-168.1c0-19.7-15.9-35.6-35.6-35.6s-35.6,15.9-35.6,35.6s15.9,35.6,35.6,35.6
		S1754.1-148.5,1754.1-168.1"/>
	<path id="XMLID_554_" class="st2" d="M1634.2-157.3c0-6.8-5.5-12.4-12.4-12.4c-6.8,0-12.4,5.5-12.4,12.4c0,6.8,5.5,12.4,12.4,12.4
		C1628.7-144.9,1634.2-150.5,1634.2-157.3"/>
	<path id="XMLID_553_" class="st2" d="M1763.5-273.4c0-6.8-5.5-12.4-12.4-12.4c-6.8,0-12.4,5.5-12.4,12.4c0,6.8,5.5,12.4,12.4,12.4
		C1757.9-261,1763.5-266.6,1763.5-273.4"/>
</g>
<g id="XMLID_549_">
	<defs>
		<rect id="XMLID_550_" x="1.1" y="-62.3" width="1894" height="877.2"/>
	</defs>
	<clipPath id="XMLID_35_">
		<use xlink:href="#XMLID_550_"  style="overflow:visible;"/>
	</clipPath>
	<path id="XMLID_551_" class="st4" d="M-31.5,289.1c78.8,0,142.8-63.9,142.8-142.8C111.2,67.5,47.3,3.6-31.5,3.6
		c-78.8,0-142.8,63.9-142.8,142.8C-174.3,225.2-110.4,289.1-31.5,289.1"/>
</g>
<g id="XMLID_15_">
	<g id="XMLID_19_">
		<path id="XMLID_33_" class="st3" d="M232.6-159.1h2.3l1.7,6.1c0.4,1.4,0.7,2.6,1.1,4h0.1c0.4-1.4,0.7-2.6,1.1-4l1.7-6.1h2.2
			l-3.8,12.2h-2.6L232.6-159.1z"/>
		<path id="XMLID_31_" class="st3" d="M244.3-159.1h7.4v1.8h-5.2v3.1h4.4v1.8h-4.4v3.6h5.4v1.8h-7.5V-159.1z"/>
		<path id="XMLID_28_" class="st3" d="M254.3-159.1h4.1c2.5,0,4.5,0.9,4.5,3.6c0,1.9-1,3-2.4,3.5l2.9,5.1H261l-2.6-4.8h-1.9v4.8
			h-2.2V-159.1z M258.2-153.4c1.7,0,2.6-0.7,2.6-2.1c0-1.4-0.9-1.9-2.6-1.9h-1.7v4H258.2z"/>
		<path id="XMLID_26_" class="st3" d="M269.1-159.1h2.4l2.2,6c0.3,0.8,0.5,1.6,0.8,2.4h0.1c0.3-0.8,0.5-1.6,0.8-2.4l2.1-6h2.5v12.2
			h-2v-5.6c0-1.1,0.2-2.8,0.3-3.9h-0.1l-1,2.8l-2,5.5h-1.3l-2-5.5l-1-2.8h-0.1c0.1,1.1,0.3,2.7,0.3,3.9v5.6h-2V-159.1z"/>
		<path id="XMLID_22_" class="st3" d="M285.4-159.1h2.5l4,12.2h-2.3l-1-3.3h-4.1l-1,3.3h-2.2L285.4-159.1z M285.1-151.9h3.1
			l-0.4-1.5c-0.4-1.3-0.7-2.7-1.1-4h-0.1c-0.3,1.4-0.7,2.7-1.1,4L285.1-151.9z M285.5-160.8l2.9-2.5l1.2,1.4l-3.1,2.2L285.5-160.8z"
			/>
		<path id="XMLID_20_" class="st3" d="M292.6-148.4l1.3-1.5c0.9,0.8,2.1,1.4,3.2,1.4c1.4,0,2.1-0.6,2.1-1.6c0-1-0.8-1.3-1.9-1.8
			l-1.7-0.7c-1.2-0.5-2.5-1.5-2.5-3.2c0-1.9,1.7-3.4,4.1-3.4c1.4,0,2.8,0.6,3.8,1.5l-1.1,1.4c-0.8-0.7-1.6-1-2.7-1
			c-1.2,0-1.9,0.5-1.9,1.4c0,1,0.9,1.3,1.9,1.7l1.7,0.7c1.4,0.6,2.5,1.5,2.5,3.3c0,2-1.6,3.6-4.4,3.6
			C295.4-146.7,293.8-147.3,292.6-148.4z"/>
	</g>
	<g id="XMLID_16_">
		<path id="XMLID_18_" class="st5" d="M186.8-123.7c15.8,0,28.5-12.8,28.5-28.5c0-15.8-12.8-28.5-28.5-28.5
			c-15.8,0-28.5,12.8-28.5,28.5C158.3-136.5,171.1-123.7,186.8-123.7"/>
		<polyline id="XMLID_17_" class="st6" points="196.2,-160.1 191.6,-151.6 186.9,-143.1 181.8,-151.4 176.6,-159.6 		"/>
	</g>
</g>
</svg>
