<?xml version="1.0" encoding="utf-8"?>
<!-- Generator: Adobe Illustrator 19.0.0, SVG Export Plug-In . SVG Version: 6.00 Build 0)  -->
<svg version="1.1" id="Capa_1" xmlns="http://www.w3.org/2000/svg" xmlns:xlink="http://www.w3.org/1999/xlink" x="0px" y="0px"
	 viewBox="0 0 1920 800" style="enable-background:new 0 0 1920 800;" xml:space="preserve">
<style type="text/css">
	.st0{fill:#005DB9;}
	.st1{fill:#00A8E1;}
</style>
<g id="XMLID_1_">
	<path id="XMLID_689_" class="st0" d="M157.8,67.7c6.6,0,12-5.4,12-12c0-6.6-5.4-12-12-12c-6.6,0-12,5.4-12,12
		C145.8,62.3,151.2,67.7,157.8,67.7"/>
	<path id="XMLID_688_" class="st1" d="M60.4,119.5c11.6,0,21-9.4,21-21c0-11.6-9.4-21-21-21c-11.6,0-21,9.4-21,21
		C39.4,110,48.8,119.5,60.4,119.5"/>
	<path id="XMLID_687_" class="st0" d="M101.9,232.1c6.6,0,12-5.4,12-12c0-6.6-5.4-12-12-12c-6.6,0-12,5.4-12,12
		C89.9,226.8,95.3,232.1,101.9,232.1"/>
	<path id="XMLID_686_" class="st0" d="M1670.1,396c-9.7,0-17.5,7.9-17.5,17.5s7.9,17.5,17.5,17.5c9.7,0,17.5-7.9,17.5-17.5
		S1679.8,396,1670.1,396"/>
	<path id="XMLID_685_" class="st0" d="M1574.9,499.4c-6.6,0-12,5.4-12,12c0,6.6,5.4,12,12,12c6.6,0,12-5.4,12-12
		C1586.9,504.8,1581.5,499.4,1574.9,499.4"/>
	<path id="XMLID_684_" class="st1" d="M1664.1,551.6c-19.6,0-35.5,15.9-35.5,35.5c0,19.6,15.9,35.5,35.5,35.5
		c19.6,0,35.5-15.9,35.5-35.5C1699.6,567.4,1683.7,551.6,1664.1,551.6"/>
</g>
</svg>
