<?xml version="1.0" encoding="utf-8"?>
<!-- Generator: Adobe Illustrator 19.0.0, SVG Export Plug-In . SVG Version: 6.00 Build 0)  -->
<svg version="1.1" id="Capa_1" xmlns="http://www.w3.org/2000/svg" xmlns:xlink="http://www.w3.org/1999/xlink" x="0px" y="0px"
	 viewBox="0 0 1920 800" style="enable-background:new 0 0 1920 800;" xml:space="preserve">
<style type="text/css">
	.st0{clip-path:url(#XMLID_2_);fill:#00A8E1;}
	.st1{fill:#00A8E1;}
	.st2{fill:#005DB9;}
	.st3{fill:#FCD700;}
	.st4{fill:#FAA21B;}
	.st5{fill:#A4D55D;}
	.st6{fill:#4E9D2D;}
</style>
<g id="XMLID_582_">
	<defs>
		<rect id="XMLID_583_" x="72.4" y="-16.3" width="1698.5" height="958.7"/>
	</defs>
	<clipPath id="XMLID_2_">
		<use xlink:href="#XMLID_583_"  style="overflow:visible;"/>
	</clipPath>
	<path id="XMLID_584_" class="st0" d="M925.9,84.1c70.7,0,128-57.3,128-128c0-70.7-57.3-128-128-128c-70.7,0-128,57.3-128,128
		C797.8,26.7,855.2,84.1,925.9,84.1"/>
</g>
<path id="XMLID_415_" class="st1" d="M570.9,218.8c10.3,0,18.7-8.4,18.7-18.7c0-10.3-8.4-18.7-18.7-18.7c-10.3,0-18.7,8.4-18.7,18.7
	C552.3,210.4,560.6,218.8,570.9,218.8"/>
<path id="XMLID_414_" class="st1" d="M642.1,163.1c7.7,0,14-6.3,14-14c0-7.7-6.3-14-14-14c-7.7,0-14,6.3-14,14
	C628.1,156.8,634.4,163.1,642.1,163.1"/>
<path id="XMLID_413_" class="st2" d="M642.1,280.4c7.2,0,13.1-5.8,13.1-13.1c0-7.2-5.8-13.1-13.1-13.1c-7.2,0-13.1,5.8-13.1,13.1
	C629,274.6,634.9,280.4,642.1,280.4"/>
<path id="XMLID_412_" class="st3" d="M1125.9,218.8c10.3,0,18.7-8.4,18.7-18.7c0-10.3-8.4-18.7-18.7-18.7
	c-10.3,0-18.7,8.4-18.7,18.7C1107.2,210.4,1115.6,218.8,1125.9,218.8"/>
<path id="XMLID_411_" class="st4" d="M1197.1,163.1c7.7,0,14-6.3,14-14c0-7.7-6.3-14-14-14c-7.7,0-14,6.3-14,14
	C1183.1,156.8,1189.3,163.1,1197.1,163.1"/>
<path id="XMLID_410_" class="st4" d="M1197.1,280.4c7.2,0,13.1-5.8,13.1-13.1c0-7.2-5.8-13.1-13.1-13.1s-13.1,5.8-13.1,13.1
	C1184,274.6,1189.8,280.4,1197.1,280.4"/>
<path id="XMLID_409_" class="st5" d="M1644.9,218.8c10.3,0,18.7-8.4,18.7-18.7c0-10.3-8.4-18.7-18.7-18.7s-18.7,8.4-18.7,18.7
	C1626.2,210.4,1634.5,218.8,1644.9,218.8"/>
<path id="XMLID_408_" class="st5" d="M1716,163.1c7.7,0,14-6.3,14-14c0-7.7-6.3-14-14-14c-7.7,0-14,6.3-14,14
	C1702,156.8,1708.3,163.1,1716,163.1"/>
<path id="XMLID_407_" class="st6" d="M1716,280.4c7.2,0,13.1-5.8,13.1-13.1c0-7.2-5.8-13.1-13.1-13.1s-13.1,5.8-13.1,13.1
	C1702.9,274.6,1708.8,280.4,1716,280.4"/>
</svg>
